<svg id="Layer_1" data-name="Layer 1" xmlns="http://www.w3.org/2000/svg" viewBox="0 0 153.6 125.21"><defs><style>.cls-1,.cls-18,.cls-2,.cls-22{fill:#183147;}.cls-18,.cls-2{stroke:#5da8ae;}.cls-10,.cls-11,.cls-12,.cls-14,.cls-15,.cls-16,.cls-18,.cls-19,.cls-2,.cls-21,.cls-22,.cls-5,.cls-6,.cls-7,.cls-8{stroke-miterlimit:10;}.cls-19,.cls-2{stroke-width:2.04px;}.cls-3{fill:#456a82;}.cls-4{fill:#74909f;}.cls-10,.cls-5,.cls-6,.cls-7,.cls-8{fill:none;stroke:#456a82;}.cls-5{stroke-width:0.92px;}.cls-6{stroke-width:0.92px;}.cls-7{stroke-width:1.43px;}.cls-8{stroke-width:1.18px;}.cls-9{fill:#c6da5a;}.cls-10{stroke-width:1.24px;}.cls-11{fill:#8ba489;}.cls-11,.cls-12,.cls-14,.cls-15,.cls-16{stroke:#182e43;}.cls-11,.cls-14,.cls-15,.cls-16{stroke-width:1.67px;}.cls-12{fill:#dce7a3;stroke-width:1.58px;}.cls-13{fill:#c2cb84;}.cls-14{fill:#208f8c;}.cls-15{fill:#f3a56d;}.cls-16{fill:#ddc86d;}.cls-17{fill:#107e85;}.cls-18{stroke-width:3.68px;}.cls-19{fill:#f6fafd;stroke:#1f3141;}.cls-20{fill:#1f3141;}.cls-21{fill:#f2dd80;stroke-width:3.06px;}.cls-21,.cls-22{stroke:#183147;}.cls-22{stroke-width:0.19px;}</style></defs><title>Identity</title><path class="cls-1" d="M35.47,125.91V128c0,5.31,2.86,10,7.13,11.77L96,161.49a12.32,12.32,0,0,0,9.5-.05l53.08-22.25c4.73-2,7.89-7.24,7.89-13.13v-1.33C121,117,77.15,116.69,35.47,125.91Z" transform="translate(-24.29 -37.2)"/><path class="cls-2" d="M35.51,104.14a65.93,65.93,0,0,1,131.85,0" transform="translate(-24.29 -37.2)"/><path class="cls-3" d="M46,101.33a55.85,55.85,0,1,1,111.69,0" transform="translate(-24.29 -37.2)"/><path class="cls-4" d="M61,101.06H48.82a.41.41,0,1,1,0-.82H61a.41.41,0,1,1,0,.82Z" transform="translate(-24.29 -37.2)"/><path class="cls-4" d="M57.6,89.06l.79-.78,3.15,3.19.18-6.26h.72l.14,4.73L65,87.62l.78.8-3.13,3,.28,8.4H61.27L61.5,93Z" transform="translate(-24.29 -37.2)"/><path class="cls-4" d="M53.37,84.18a2.86,2.86,0,0,1,2.86-2.86h.2a2.92,2.92,0,0,1,3.85-1.47,2.65,2.65,0,0,1,4.35.17,2.24,2.24,0,0,1,2.67,2.21,2.11,2.11,0,0,1,1.56,3.54,2.64,2.64,0,0,1-2.31,2.94l-.33,0A2.65,2.65,0,0,1,63.73,87a2.63,2.63,0,0,1-2.48.42,2.64,2.64,0,0,1-3.4,1.56l0,0A1.9,1.9,0,0,1,55,86.77a2.86,2.86,0,0,1-1.65-2.59Z" transform="translate(-24.29 -37.2)"/><path class="cls-4" d="M59.89,87.5l-1-1-4,4-.23-7.87H53.8l-.17,5.95-3-2.91-1,1,3.93,3.8-.35,10.56h2.06L55,92.46Z" transform="translate(-24.29 -37.2)"/><path class="cls-4" d="M64.76,81a3.6,3.6,0,0,0-3.6-3.6h-.25a3.67,3.67,0,0,0-4.84-1.85,3.33,3.33,0,0,0-5.47.21,2.82,2.82,0,0,0-3.35,2.77,2.66,2.66,0,0,0-2,4.45,3.33,3.33,0,0,0,6.44,1.52,3.31,3.31,0,0,0,3.12.53,3.32,3.32,0,0,0,4.28,2l.06,0a2.39,2.39,0,0,0,3.49-2.71A3.59,3.59,0,0,0,64.76,81Z" transform="translate(-24.29 -37.2)"/><path class="cls-5" d="M64.76,81a3.6,3.6,0,0,0-3.6-3.6h-.25a3.67,3.67,0,0,0-4.84-1.85,3.33,3.33,0,0,0-5.47.21,2.82,2.82,0,0,0-3.35,2.77,2.66,2.66,0,0,0-2,4.45,3.33,3.33,0,0,0,6.44,1.52,3.31,3.31,0,0,0,3.12.53,3.32,3.32,0,0,0,4.28,2l.06,0a2.39,2.39,0,0,0,3.49-2.71A3.59,3.59,0,0,0,64.76,81Z" transform="translate(-24.29 -37.2)"/><path class="cls-4" d="M62.09,83.37a.41.41,0,0,1-.17-.78,1.78,1.78,0,0,0,.95-2.17.41.41,0,1,1,.78-.25,2.6,2.6,0,0,1-1.38,3.16.41.41,0,0,1-.17,0Z" transform="translate(-24.29 -37.2)"/><path class="cls-4" d="M148.57,98.55H136.41a.41.41,0,0,1,0-.82h12.16a.41.41,0,1,1,0,.82Z" transform="translate(-24.29 -37.2)"/><path class="cls-4" d="M145.19,90.45l.79-.78,3.15,3.19.18-6.26H150l.14,4.73,2.4-2.32.77.8-3.13,3,.28,8.4h-1.64l.23-6.84Z" transform="translate(-24.29 -37.2)"/><path class="cls-4" d="M143.56,85.57a2.86,2.86,0,0,1,2.86-2.86h.2a2.92,2.92,0,0,1,3.85-1.47,2.65,2.65,0,0,1,4.35.17,2.24,2.24,0,0,1,2.67,2.21A2.11,2.11,0,0,1,159,87.15a2.64,2.64,0,0,1-2.31,2.94l-.33,0a2.65,2.65,0,0,1-2.49-1.75,2.63,2.63,0,0,1-2.48.42,2.64,2.64,0,0,1-3.4,1.55l0,0a1.9,1.9,0,0,1-2.78-2.15,2.86,2.86,0,0,1-1.65-2.59Z" transform="translate(-24.29 -37.2)"/><path class="cls-6" d="M143.56,85.57a2.86,2.86,0,0,1,2.86-2.86h.2a2.92,2.92,0,0,1,3.85-1.47,2.65,2.65,0,0,1,4.35.17,2.24,2.24,0,0,1,2.67,2.21A2.11,2.11,0,0,1,159,87.15a2.64,2.64,0,0,1-2.31,2.94l-.33,0a2.65,2.65,0,0,1-2.49-1.75,2.63,2.63,0,0,1-2.48.42,2.64,2.64,0,0,1-3.4,1.55l0,0a1.9,1.9,0,0,1-2.78-2.15,2.86,2.86,0,0,1-1.65-2.59Z" transform="translate(-24.29 -37.2)"/><path class="cls-4" d="M147.48,85l-1-1-4,4-.23-7.87h-.91l-.17,5.95-3-2.91-1,1,3.93,3.8-.35,10.56h2.06l-.29-8.6Z" transform="translate(-24.29 -37.2)"/><path class="cls-4" d="M152.35,78.47a3.6,3.6,0,0,0-3.6-3.59h-.25A3.67,3.67,0,0,0,143.67,73a3.33,3.33,0,0,0-5.47.21A2.82,2.82,0,0,0,134.85,76a2.66,2.66,0,0,0-2,4.44A3.33,3.33,0,0,0,139.33,82a3.31,3.31,0,0,0,3.12.53,3.32,3.32,0,0,0,4.27,2l.06,0a2.39,2.39,0,0,0,3.49-2.71,3.59,3.59,0,0,0,2.08-3.26Z" transform="translate(-24.29 -37.2)"/><path class="cls-6" d="M152.35,78.47a3.6,3.6,0,0,0-3.6-3.59h-.25A3.67,3.67,0,0,0,143.67,73a3.33,3.33,0,0,0-5.47.21A2.82,2.82,0,0,0,134.85,76a2.66,2.66,0,0,0-2,4.44A3.33,3.33,0,0,0,139.33,82a3.31,3.31,0,0,0,3.12.53,3.32,3.32,0,0,0,4.27,2l.06,0a2.39,2.39,0,0,0,3.49-2.71,3.59,3.59,0,0,0,2.08-3.26Z" transform="translate(-24.29 -37.2)"/><path class="cls-4" d="M149.68,80.86a.41.41,0,0,1-.17-.78,1.78,1.78,0,0,0,.95-2.17.41.41,0,1,1,.78-.25,2.6,2.6,0,0,1-1.38,3.16.41.41,0,0,1-.17,0Z" transform="translate(-24.29 -37.2)"/><path class="cls-4" d="M114.72,82.65h-13a.44.44,0,1,1,0-.88h13a.44.44,0,1,1,0,.88Z" transform="translate(-24.29 -37.2)"/><path class="cls-4" d="M113.54,68.12l-1.07-1.06-4.24,4.29L108,62.92h-1l-.19,6.38-3.23-3.12-1,1.08,4.21,4.08-.37,11.32h2.21l-.31-9.22Z" transform="translate(-24.29 -37.2)"/><path class="cls-4" d="M118.77,61.12a3.86,3.86,0,0,0-3.86-3.85h-.26a3.94,3.94,0,0,0-5.18-2,3.57,3.57,0,0,0-5.86.23,3,3,0,0,0-3.59,3,2.85,2.85,0,0,0-2.11,4.76,3.57,3.57,0,0,0,6.91,1.62,3.55,3.55,0,0,0,3.34.57,3.56,3.56,0,0,0,4.58,2.09l.07,0a2.56,2.56,0,0,0,3.74-2.9,3.85,3.85,0,0,0,2.23-3.49Z" transform="translate(-24.29 -37.2)"/><path class="cls-4" d="M115.9,63.69a.44.44,0,0,1-.19-.83,1.91,1.91,0,0,0,1-2.33.44.44,0,1,1,.83-.27,2.79,2.79,0,0,1-1.48,3.39.44.44,0,0,1-.19,0Z" transform="translate(-24.29 -37.2)"/><path class="cls-4" d="M75.8,85.53H63.48a.41.41,0,1,1,0-.83H75.8a.41.41,0,0,1,0,.83Z" transform="translate(-24.29 -37.2)"/><path class="cls-4" d="M74.68,71.8l-1-1-4,4.06-.23-8h-.92l-.18,6-3-3-1,1,4,3.85-.35,10.7H70l-.3-8.71Z" transform="translate(-24.29 -37.2)"/><path class="cls-4" d="M79.62,65.19A3.64,3.64,0,0,0,76,61.55h-.25a3.72,3.72,0,0,0-4.9-1.88,3.37,3.37,0,0,0-5.54.21,2.85,2.85,0,0,0-3.39,2.81,2.69,2.69,0,0,0-2,4.5,3.37,3.37,0,0,0,6.52,1.53,3.35,3.35,0,0,0,3.16.54,3.37,3.37,0,0,0,4.33,2l.06,0a2.42,2.42,0,0,0,3.54-2.74,3.64,3.64,0,0,0,2.1-3.3Z" transform="translate(-24.29 -37.2)"/><path class="cls-7" d="M79.62,65.19A3.64,3.64,0,0,0,76,61.55h-.25a3.72,3.72,0,0,0-4.9-1.88,3.37,3.37,0,0,0-5.54.21,2.85,2.85,0,0,0-3.39,2.81,2.69,2.69,0,0,0-2,4.5,3.37,3.37,0,0,0,6.52,1.53,3.35,3.35,0,0,0,3.16.54,3.37,3.37,0,0,0,4.33,2l.06,0a2.42,2.42,0,0,0,3.54-2.74,3.64,3.64,0,0,0,2.1-3.3Z" transform="translate(-24.29 -37.2)"/><path class="cls-4" d="M76.91,67.62a.41.41,0,0,1-.18-.79,1.81,1.81,0,0,0,1-2.2.41.41,0,1,1,.79-.26,2.63,2.63,0,0,1-1.4,3.2.41.41,0,0,1-.18,0Z" transform="translate(-24.29 -37.2)"/><path class="cls-4" d="M94.64,84H84.44a.34.34,0,0,1,0-.69h10.2a.34.34,0,1,1,0,.69Z" transform="translate(-24.29 -37.2)"/><path class="cls-4" d="M93.72,72.67l-.84-.83-3.32,3.36-.19-6.6h-.76l-.15,5-2.52-2.44-.82.84,3.29,3.19L88.13,84h1.73l-.24-7.21Z" transform="translate(-24.29 -37.2)"/><path class="cls-4" d="M97.8,67.2a3,3,0,0,0-3-3h-.21a3.08,3.08,0,0,0-4.05-1.55,2.79,2.79,0,0,0-4.58.18,2.36,2.36,0,0,0-2.81,2.32,2.23,2.23,0,0,0-1.65,3.73,2.79,2.79,0,0,0,5.4,1.27,2.78,2.78,0,0,0,2.61.44,2.79,2.79,0,0,0,3.58,1.64l.05,0a2,2,0,0,0,2.93-2.27A3,3,0,0,0,97.8,67.2Z" transform="translate(-24.29 -37.2)"/><path class="cls-8" d="M97.8,67.2a3,3,0,0,0-3-3h-.21a3.08,3.08,0,0,0-4.05-1.55,2.79,2.79,0,0,0-4.58.18,2.36,2.36,0,0,0-2.81,2.32,2.23,2.23,0,0,0-1.65,3.73,2.79,2.79,0,0,0,5.4,1.27,2.78,2.78,0,0,0,2.61.44,2.79,2.79,0,0,0,3.58,1.64l.05,0a2,2,0,0,0,2.93-2.27A3,3,0,0,0,97.8,67.2Z" transform="translate(-24.29 -37.2)"/><path class="cls-4" d="M95.56,69.21a.34.34,0,0,1-.15-.65,1.5,1.5,0,0,0,.79-1.82.34.34,0,1,1,.65-.21,2.18,2.18,0,0,1-1.15,2.65.34.34,0,0,1-.15,0Z" transform="translate(-24.29 -37.2)"/><path class="cls-9" d="M56.76,101.85H39.31A4.38,4.38,0,0,1,41.57,98,3.5,3.5,0,0,1,45,95.2a3.46,3.46,0,0,1,1.36.28,3.23,3.23,0,0,1,4.51.75l0,0a3.65,3.65,0,0,1,.59-.05A3.5,3.5,0,0,1,54.55,98,4.39,4.39,0,0,1,56.76,101.85Z" transform="translate(-24.29 -37.2)"/><path class="cls-9" d="M42.12,102.84l-13.67,1.72a3.45,3.45,0,0,1,1.39-3.23,2.76,2.76,0,0,1,2.41-2.53,2.73,2.73,0,0,1,1.09.08,2.55,2.55,0,0,1,3.6.14v0a2.88,2.88,0,0,1,.45-.1A2.76,2.76,0,0,1,40,100.07,3.46,3.46,0,0,1,42.12,102.84Z" transform="translate(-24.29 -37.2)"/><path class="cls-9" d="M173.49,105.1l-17.19-3a4.38,4.38,0,0,1,2.9-3.39,3.5,3.5,0,0,1,3.86-2.16,3.46,3.46,0,0,1,1.29.51,3.23,3.23,0,0,1,4.31,1.53v0a3.65,3.65,0,0,1,.59.05A3.5,3.5,0,0,1,172,101,4.39,4.39,0,0,1,173.49,105.1Z" transform="translate(-24.29 -37.2)"/><path class="cls-9" d="M158,101.94l-13.76-.68a3.45,3.45,0,0,1,1.94-2.94A2.76,2.76,0,0,1,149,96.24a2.73,2.73,0,0,1,1.06.27,2.55,2.55,0,0,1,3.52.77v0a2.88,2.88,0,0,1,.47,0,2.76,2.76,0,0,1,2.36,1.56A3.46,3.46,0,0,1,158,101.94Z" transform="translate(-24.29 -37.2)"/><path class="cls-4" d="M131,88.09H120.33a.36.36,0,1,1,0-.72H131a.36.36,0,1,1,0,.72Z" transform="translate(-24.29 -37.2)"/><path class="cls-4" d="M130,76.19l-.87-.86-3.47,3.51-.2-6.91h-.79l-.15,5.22-2.64-2.56-.85.88,3.45,3.34-.31,9.27H126l-.26-7.54Z" transform="translate(-24.29 -37.2)"/><path class="cls-4" d="M134.32,70.46a3.16,3.16,0,0,0-3.16-3.16h-.22a3.22,3.22,0,0,0-4.24-1.63,2.92,2.92,0,0,0-4.8.18A2.47,2.47,0,0,0,119,68.31a2.33,2.33,0,0,0-1.73,3.9,2.92,2.92,0,0,0,5.65,1.33,2.91,2.91,0,0,0,2.73.46,2.92,2.92,0,0,0,3.75,1.71l.05,0a2.1,2.1,0,0,0,3.07-2.38,3.15,3.15,0,0,0,1.82-2.86Z" transform="translate(-24.29 -37.2)"/><path class="cls-10" d="M134.32,70.46a3.16,3.16,0,0,0-3.16-3.16h-.22a3.22,3.22,0,0,0-4.24-1.63,2.92,2.92,0,0,0-4.8.18A2.47,2.47,0,0,0,119,68.31a2.33,2.33,0,0,0-1.73,3.9,2.92,2.92,0,0,0,5.65,1.33,2.91,2.91,0,0,0,2.73.46,2.92,2.92,0,0,0,3.75,1.71l.05,0a2.1,2.1,0,0,0,3.07-2.38,3.15,3.15,0,0,0,1.82-2.86Z" transform="translate(-24.29 -37.2)"/><path class="cls-4" d="M132,72.57a.36.36,0,0,1-.15-.68,1.57,1.57,0,0,0,.83-1.91.36.36,0,1,1,.68-.22,2.28,2.28,0,0,1-1.21,2.78.36.36,0,0,1-.15,0Z" transform="translate(-24.29 -37.2)"/><path class="cls-11" d="M95.9,89.92c4.65,3.23,9.32,6.71,14,10.37h15.61c-6.12-6.68-12.26-13-18.44-18.67A121.47,121.47,0,0,0,95.9,89.92Z" transform="translate(-24.29 -37.2)"/><path class="cls-12" d="M49.64,100.3H84.49c3.78-3.73,7.58-7.21,11.41-10.37a160.55,160.55,0,0,0-24.23-14.2C62.2,84.05,54.62,92.27,49.64,100.3Z" transform="translate(-24.29 -37.2)"/><path class="cls-13" d="M50.79,99.71,56.61,92c8.6-4.35,18.62-7.68,28.39-8.32l9.63,6.21L83.71,99.56Z" transform="translate(-24.29 -37.2)"/><path class="cls-14" d="M101.74,100.46q25.47.38,51.11,1.82l.33,0C141.89,92,129.76,83,116.27,76.31A89.67,89.67,0,0,0,107,81.63c6.17,5.62,12.31,12,18.44,18.67H109.87Z" transform="translate(-24.29 -37.2)"/><path class="cls-15" d="M71.67,75.72A160.55,160.55,0,0,1,95.9,89.92,121.47,121.47,0,0,1,107,81.63C99.61,74.83,92.1,69.09,84.49,65.16Q77.64,70.46,71.67,75.72Z" transform="translate(-24.29 -37.2)"/><path class="cls-16" d="M84.49,100.3h25.38c-4.65-3.66-9.32-7.14-14-10.37C92.06,93.09,88.27,96.57,84.49,100.3Z" transform="translate(-24.29 -37.2)"/><path class="cls-17" d="M142.6,94.39C132.37,89.33,125.79,88,115,88l11.46,12.08,26.74,2.23Z" transform="translate(-24.29 -37.2)"/><path class="cls-18" d="M40.93,123.68v1.8c0,4.59,2.51,8.68,6.24,10.18l48.77,18.81a10.89,10.89,0,0,0,8.31,0l49.9-19.26c4.14-1.72,6.9-6.27,6.9-11.37v-1.15C121.23,116,77.41,115.7,40.93,123.68Z" transform="translate(-24.29 -37.2)"/><path class="cls-19" d="M166.15,144.63c-43.29-18.72-83.52-19.61-131.05,0L31,132.89c45.06-19.17,96.07-20.36,139.92.48Z" transform="translate(-24.29 -37.2)"/><path class="cls-1" d="M50.38,134.41a3.52,3.52,0,0,1-1.3.68,2.56,2.56,0,0,1-3.42-1.83,2.73,2.73,0,0,1,1.87-3.61,2.94,2.94,0,0,1,1.32-.16v.6a2.58,2.58,0,0,0-1.12.11,2,2,0,0,0-1.36,2.8A2,2,0,0,0,49,134.48a2.83,2.83,0,0,0,1-.56Z" transform="translate(-24.29 -37.2)"/><path class="cls-1" d="M53.94,131.48A1.93,1.93,0,0,1,52.63,134a1.87,1.87,0,0,1-2.38-1.43,1.93,1.93,0,0,1,1.3-2.55A1.87,1.87,0,0,1,53.94,131.48Zm-3,.91c.24.83.9,1.32,1.57,1.12a1.36,1.36,0,0,0,.73-1.8c-.19-.64-.74-1.36-1.55-1.13A1.34,1.34,0,0,0,50.95,132.39Z" transform="translate(-24.29 -37.2)"/><path class="cls-1" d="M54.53,130.41c-.1-.39-.19-.72-.3-1l.61-.16.19.61h0a1.36,1.36,0,0,1,1-1,1.17,1.17,0,0,1,1.28.49h0a1.63,1.63,0,0,1,.3-.61,1.35,1.35,0,0,1,.77-.49c.5-.13,1.34,0,1.68,1.33l.58,2.25L60,132l-.56-2.16c-.19-.73-.57-1.11-1.13-1a.93.93,0,0,0-.66.84,1.19,1.19,0,0,0,0,.36l.61,2.36-.68.17-.59-2.29c-.16-.61-.54-1-1.07-.84a1,1,0,0,0-.68.92,1,1,0,0,0,0,.35l.59,2.3-.68.17Z" transform="translate(-24.29 -37.2)"/><path class="cls-1" d="M61.73,129.67a1.26,1.26,0,0,0,1.62,1,2.59,2.59,0,0,0,1-.44l.23.47a3.18,3.18,0,0,1-1.23.53A1.83,1.83,0,0,1,61,129.76a1.91,1.91,0,0,1,1.33-2.48,1.67,1.67,0,0,1,2,1.45,2.68,2.68,0,0,1,.05.33Zm1.94-1a1,1,0,0,0-1.23-.92,1.19,1.19,0,0,0-.82,1.38Z" transform="translate(-24.29 -37.2)"/><path class="cls-1" d="M67.12,125.24a.44.44,0,0,1-.87.17.44.44,0,0,1,.35-.53A.43.43,0,0,1,67.12,125.24Zm.2,5.11-.77-3.87.7-.14.77,3.87Z" transform="translate(-24.29 -37.2)"/><path class="cls-1" d="M68.61,127.16c-.07-.4-.14-.73-.22-1L69,126l.16.63h0a1.45,1.45,0,0,1,1.15-1c.54-.1,1.43.07,1.67,1.4l.42,2.32-.71.13-.4-2.24c-.11-.62-.44-1.1-1.1-1a1,1,0,0,0-.8,1.23l.42,2.33-.7.13Z" transform="translate(-24.29 -37.2)"/><path class="cls-1" d="M77.3,128.62l-.13-.48h0a1.47,1.47,0,0,1-1.11.76,1.12,1.12,0,0,1-1.36-.94c-.14-.94.62-1.58,2.13-1.8v-.08a.81.81,0,0,0-1-.77,2,2,0,0,0-1,.44l-.23-.44a2.44,2.44,0,0,1,1.23-.54,1.4,1.4,0,0,1,1.72,1.37l.22,1.46a5.58,5.58,0,0,0,.2.92Zm-.4-2c-.78.1-1.63.37-1.52,1.13a.63.63,0,0,0,.77.58,1,1,0,0,0,.84-.79.75.75,0,0,0,0-.23Z" transform="translate(-24.29 -37.2)"/><path class="cls-1" d="M78.75,127.68a1.88,1.88,0,0,0,1,.16c.52-.07.73-.36.69-.68s-.27-.5-.82-.63c-.74-.16-1.12-.51-1.18-1a1.22,1.22,0,0,1,1.2-1.32,2,2,0,0,1,1,.12l-.11.54a1.54,1.54,0,0,0-.83-.12c-.42.05-.62.33-.59.62s.29.44.83.57c.71.17,1.1.47,1.18,1s-.38,1.24-1.31,1.36a2.25,2.25,0,0,1-1.13-.13Z" transform="translate(-24.29 -37.2)"/><path class="cls-1" d="M86.72,123.55c0,.29,0,.6.07,1.08l.22,2.28a2.27,2.27,0,0,1-.38,1.85,2.1,2.1,0,0,1-1.38.61,2.55,2.55,0,0,1-1.34-.2l.13-.56a2.23,2.23,0,0,0,1.18.2,1.19,1.19,0,0,0,1.13-1.5l0-.44h0a1.41,1.41,0,0,1-1.19.78,1.76,1.76,0,0,1-1.86-1.75,1.9,1.9,0,0,1,1.57-2.26,1.31,1.31,0,0,1,1.29.56h0l0-.6Zm-.59,1.62a1,1,0,0,0-.07-.32A1,1,0,0,0,85,124.2c-.68.07-1.11.69-1,1.6s.53,1.37,1.3,1.3a1,1,0,0,0,.92-.83,1.27,1.27,0,0,0,0-.39Z" transform="translate(-24.29 -37.2)"/><path class="cls-1" d="M91.37,126.08c0,.41.06.76.11,1.07l-.63,0-.09-.64h0a1.48,1.48,0,0,1-1.25.83c-.62,0-1.38-.24-1.48-1.62l-.17-2.3.72-.05.16,2.18c.06.75.32,1.24,1,1.19a1,1,0,0,0,.9-.72,1.05,1.05,0,0,0,0-.37l-.18-2.42.72-.05Z" transform="translate(-24.29 -37.2)"/><path class="cls-1" d="M92.85,125.23a1.26,1.26,0,0,0,1.42,1.3,2.6,2.6,0,0,0,1.08-.26l.15.51a3.19,3.19,0,0,1-1.3.31,1.83,1.83,0,0,1-2-1.89A1.91,1.91,0,0,1,93.91,123a1.67,1.67,0,0,1,1.72,1.77,2.72,2.72,0,0,1,0,.33Zm2.07-.61a1,1,0,0,0-1-1.12,1.19,1.19,0,0,0-1,1.22Z" transform="translate(-24.29 -37.2)"/><path class="cls-1" d="M96.43,126.19a1.88,1.88,0,0,0,1,.26c.52,0,.76-.28.75-.61s-.22-.52-.75-.71c-.72-.23-1.06-.62-1.07-1.09a1.22,1.22,0,0,1,1.33-1.19,2,2,0,0,1,1,.22l-.17.53a1.54,1.54,0,0,0-.81-.21c-.42,0-.65.26-.65.55s.25.47.77.65c.69.24,1.05.58,1.07,1.16s-.51,1.2-1.44,1.22a2.25,2.25,0,0,1-1.12-.24Z" transform="translate(-24.29 -37.2)"/><path class="cls-1" d="M100.5,121.76v1.13h1v.55h-1l0,2.13c0,.49.15.76.54.76a1.59,1.59,0,0,0,.42-.05l0,.54a1.76,1.76,0,0,1-.63.1,1,1,0,0,1-.78-.29,1.46,1.46,0,0,1-.29-1l0-2.15h-.61v-.55h.61V122Z" transform="translate(-24.29 -37.2)"/><path class="cls-1" d="M101.85,127.83a11.77,11.77,0,0,0,.5-1.95l.8-.08a9.91,9.91,0,0,1-.78,2Z" transform="translate(-24.29 -37.2)"/><path class="cls-1" d="M105.76,121.08l.72,0-.14,5.79-.72,0Z" transform="translate(-24.29 -37.2)"/><path class="cls-1" d="M108,125.09a1.27,1.27,0,0,0,1.29,1.43,2.6,2.6,0,0,0,1.1-.16l.1.52a3.2,3.2,0,0,1-1.32.19,1.83,1.83,0,0,1-1.85-2.07,1.92,1.92,0,0,1,1.94-2,1.67,1.67,0,0,1,1.55,1.93,2.68,2.68,0,0,1,0,.33Zm2.12-.42a1,1,0,0,0-.94-1.21,1.19,1.19,0,0,0-1.15,1.12Z" transform="translate(-24.29 -37.2)"/><path class="cls-1" d="M113.64,127.24l0-.5h0a1.47,1.47,0,0,1-1.24.5,1.13,1.13,0,0,1-1.13-1.21c.06-1,.95-1.42,2.47-1.3v-.08a.81.81,0,0,0-.83-1,2,2,0,0,0-1,.22l-.13-.48a2.45,2.45,0,0,1,1.32-.26,1.4,1.4,0,0,1,1.39,1.71l-.1,1.47a5.57,5.57,0,0,0,0,.95Zm0-2c-.78-.07-1.68,0-1.73.77a.63.63,0,0,0,.63.73,1,1,0,0,0,1-.59.74.74,0,0,0,.06-.22Z" transform="translate(-24.29 -37.2)"/><path class="cls-1" d="M115.84,123.46l.57,2.28a10.12,10.12,0,0,1,.22,1h0c.12-.32.26-.63.42-1l1-2.14.75.07-1.9,3.79-.68-.06-1.13-4.07Z" transform="translate(-24.29 -37.2)"/><path class="cls-1" d="M119.52,125.93a1.26,1.26,0,0,0,1.18,1.52,2.59,2.59,0,0,0,1.11-.08l.06.52a3.18,3.18,0,0,1-1.33.09,1.83,1.83,0,0,1-1.69-2.2,1.91,1.91,0,0,1,2.08-1.9,1.67,1.67,0,0,1,1.4,2,2.67,2.67,0,0,1-.06.33Zm2.15-.27a1,1,0,0,0-.85-1.27,1.19,1.19,0,0,0-1.23,1Z" transform="translate(-24.29 -37.2)"/><path class="cls-1" d="M126.68,128.76l0-.5h0a1.47,1.47,0,0,1-1.28.39,1.12,1.12,0,0,1-1-1.3c.15-.94,1.06-1.33,2.57-1.09v-.08a.81.81,0,0,0-.75-1,2,2,0,0,0-1.06.13l-.09-.49a2.44,2.44,0,0,1,1.33-.15,1.4,1.4,0,0,1,1.24,1.83l-.23,1.46a5.56,5.56,0,0,0-.08.94Zm.2-2c-.77-.14-1.67-.13-1.79.62a.63.63,0,0,0,.56.78,1,1,0,0,0,1-.51.77.77,0,0,0,.08-.22Z" transform="translate(-24.29 -37.2)"/><path class="cls-1" d="M128.32,128.29a1.89,1.89,0,0,0,.88.45c.51.09.8-.12.86-.44s-.11-.56-.59-.84c-.65-.37-.91-.82-.83-1.29a1.22,1.22,0,0,1,1.55-.9,2,2,0,0,1,.91.41l-.27.48a1.54,1.54,0,0,0-.75-.37.58.58,0,0,0-.75.41c-.06.32.15.51.62.79.63.38.91.78.81,1.36s-.74,1.07-1.66.9a2.25,2.25,0,0,1-1-.46Z" transform="translate(-24.29 -37.2)"/><path class="cls-1" d="M135.15,130.39l.05-.5h0a1.47,1.47,0,0,1-1.3.32,1.13,1.13,0,0,1-.94-1.37c.2-.93,1.14-1.26,2.63-.93l0-.08a.81.81,0,0,0-.68-1.08,2,2,0,0,0-1.07.07l-.06-.5a2.45,2.45,0,0,1,1.34-.07,1.4,1.4,0,0,1,1.12,1.9l-.32,1.44a5.54,5.54,0,0,0-.14.94Zm.33-2c-.76-.18-1.66-.24-1.82.51a.63.63,0,0,0,.51.81,1,1,0,0,0,1.07-.44.76.76,0,0,0,.09-.21Z" transform="translate(-24.29 -37.2)"/><path class="cls-1" d="M138.46,131.19l.85-3.29-.54-.14.14-.53.54.14,0-.18a1.85,1.85,0,0,1,.79-1.22,1.37,1.37,0,0,1,1-.12,1.65,1.65,0,0,1,.56.26l-.23.51a1.08,1.08,0,0,0-.42-.2c-.59-.15-.87.33-1,.91l-.05.21.92.24-.14.53-.92-.24-.85,3.29Z" transform="translate(-24.29 -37.2)"/><path class="cls-1" d="M142.69,132.33l.08-.49h0a1.47,1.47,0,0,1-1.32.24,1.12,1.12,0,0,1-.85-1.42c.26-.92,1.22-1.19,2.68-.77l0-.08a.81.81,0,0,0-.62-1.12,2,2,0,0,0-1.07,0l0-.5a2.45,2.45,0,0,1,1.34,0,1.4,1.4,0,0,1,1,2l-.4,1.42a5.6,5.6,0,0,0-.19.93Zm.44-2c-.75-.23-1.64-.34-1.85.4a.63.63,0,0,0,.46.84,1,1,0,0,0,1.1-.38.79.79,0,0,0,.1-.21Z" transform="translate(-24.29 -37.2)"/><path class="cls-1" d="M145.11,130c.13-.39.22-.71.3-1l.6.19-.17.61h0a1.36,1.36,0,0,1,1.4-.31,1.16,1.16,0,0,1,.82,1.1h0a1.62,1.62,0,0,1,.58-.35,1.34,1.34,0,0,1,.92,0c.5.16,1.13.73.7,2l-.72,2.21-.67-.22.69-2.12c.23-.72.11-1.24-.44-1.42a.93.93,0,0,0-1,.36,1.17,1.17,0,0,0-.17.32l-.75,2.32-.67-.22.73-2.25c.19-.6.07-1.12-.45-1.29a1,1,0,0,0-1.07.41,1,1,0,0,0-.16.32l-.74,2.26-.67-.22Z" transform="translate(-24.29 -37.2)"/><path class="cls-1" d="M150.51,134.86l1.35-3.71.67.25-1.35,3.71Zm2.48-4.48a.44.44,0,0,1-.83-.3.44.44,0,0,1,.58-.27A.43.43,0,0,1,153,130.38Z" transform="translate(-24.29 -37.2)"/><path class="cls-1" d="M154.3,130.09l.67.25-2.06,5.41-.67-.25Z" transform="translate(-24.29 -37.2)"/><path class="cls-1" d="M155.7,132.61l-.08,2.48c0,.27,0,.6-.07.84h0c.16-.19.35-.44.54-.67l1.6-1.84.7.29-2.06,2.19a6,6,0,0,1-2.18,1.77,2,2,0,0,1-1,.1l.06-.63a1.88,1.88,0,0,0,.71-.09,2.17,2.17,0,0,0,.86-.51.52.52,0,0,0,.12-.14.63.63,0,0,0,0-.19l0-3.91Z" transform="translate(-24.29 -37.2)"/><path class="cls-1" d="M157.15,137a.48.48,0,0,1,.65-.28.51.51,0,0,1-.42.94A.48.48,0,0,1,157.15,137Z" transform="translate(-24.29 -37.2)"/><polygon class="cls-20" points="8.5 100.77 1.36 106 6.74 106 3.56 111.53 10.81 107.43 8.5 100.77"/><polygon class="cls-20" points="144.62 102.3 152.04 106.38 147.37 106.38 149.53 113.21 142.3 107.76 144.62 102.3"/><polygon class="cls-1" points="80.53 66.94 72.87 66.94 72.87 66.94 80.53 66.94 80.53 66.94"/><path class="cls-21" d="M174,127.38c-47.39-12.84-96-13.07-145.88,0a1.89,1.89,0,0,1-2.32-1.85V107a2,2,0,0,1,1.65-1.89,422.91,422.91,0,0,1,147.24,0,1.94,1.94,0,0,1,1.65,1.89v18.49A1.89,1.89,0,0,1,174,127.38Z" transform="translate(-24.29 -37.2)"/><path class="cls-22" d="M51,116.21l-.94-2-4.43.54L45,117H43.61l2.46-10.81,2.07.25-.2.64,5,8.76Zm-3.55-7.53L46,113.54l3.37-.79Z" transform="translate(-24.29 -37.2)"/><path class="cls-22" d="M65.27,114.79l-1-7.15-2.07,5.49.4.67-1.56.84-3.37-5.92-.32,6.8-1.33,0-.17-9.33-.51-.82,2-.44,4,6.83,1.89-7.37,2.24.06-.34.88,2.08,9.17Z" transform="translate(-24.29 -37.2)"/><path class="cls-22" d="M78.51,113.9a18.1,18.1,0,0,1-3.09-2.44,15.52,15.52,0,0,1-2.29-2.87l1.49-.9.19.3.21.29a2.55,2.55,0,0,0,.75-.29,1.48,1.48,0,0,0,.55-.58,1.71,1.71,0,0,0,.17-.94,1.5,1.5,0,0,0-.51-1.12,1.68,1.68,0,0,0-1.22-.35l-1,.07-1,.11.52,8.85-1.59.27L71,105.44l-.63.13L70,104.44c.24-.07.55-.14.94-.22l1.27-.25q.68-.12,1.35-.22t1.2-.12a3.58,3.58,0,0,1,2.44.61,2.7,2.7,0,0,1,1,2.12,2.41,2.41,0,0,1-.32,1.44,2.76,2.76,0,0,1-1,1,4,4,0,0,1-1.35.48A20.42,20.42,0,0,0,79.39,113Z" transform="translate(-24.29 -37.2)"/><path class="cls-22" d="M89.52,102.87l1.94.2-.05,6.76a4,4,0,0,1-.45,1.87,3.38,3.38,0,0,1-1.3,1.35,4.33,4.33,0,0,1-2.11.55,4,4,0,0,1-2-.4A3.23,3.23,0,0,1,84.26,112a4.19,4.19,0,0,1-.55-1.9l-.48-7,2,.2.2,6.45a2.57,2.57,0,0,0,.65,1.76,2,2,0,0,0,1.55.62,2.13,2.13,0,0,0,1.53-.66,2.46,2.46,0,0,0,.57-1.86Z" transform="translate(-24.29 -37.2)"/><path class="cls-22" d="M98.71,113.33l0-8.81H95.87l-.39-1.16,7.91-.52v1.66h-2.74l-.23,8.65Z" transform="translate(-24.29 -37.2)"/><path class="cls-22" d="M121.7,113.81a18,18,0,0,1-2.83-2.74,15.49,15.49,0,0,1-2-3.08l1.57-.75.16.31c0,.09.11.2.18.31a2.55,2.55,0,0,0,.77-.22,1.49,1.49,0,0,0,.61-.52,1.72,1.72,0,0,0,.27-.92,1.5,1.5,0,0,0-.4-1.16,1.68,1.68,0,0,0-1.18-.46l-1,0h-1l-.37,8.86-1.61.11.13-8.89-.64.07-.21-1.16q.37-.06,1-.12l1.28-.12c.46,0,.92-.07,1.37-.08s.85,0,1.21,0a3.57,3.57,0,0,1,2.37.85,2.7,2.7,0,0,1,.8,2.21,2.41,2.41,0,0,1-.46,1.4,2.75,2.75,0,0,1-1.08.85,4,4,0,0,1-1.39.34,20.4,20.4,0,0,0,3.4,4.12Z" transform="translate(-24.29 -37.2)"/><path class="cls-22" d="M133.17,114.52l-.55-2.13-4.45-.3-1.05,2-1.34-.26,4.46-10.15,2,.63-.32.59,3.27,9.55Zm-2.06-8.06-2.35,4.49,3.46-.14Z" transform="translate(-24.29 -37.2)"/><path class="cls-22" d="M139.28,114.85l.59-8.65-.56-.05-.15-1.15,7.68.24-.16,1.62-4.92-.47-.28,2.89,4.31,0-.16,1.71-4.27-.41-.29,3,5.2.1-.17,1.75Z" transform="translate(-24.29 -37.2)"/><path class="cls-22" d="M150.77,116l.82-8.63-.56-.07-.12-1.16,7.67.44-.2,1.62-4.91-.6-.35,2.89,4.31.13-.21,1.71-4.26-.52-.37,3,5.2.24-.21,1.75Z" transform="translate(-24.29 -37.2)"/></svg>